<?xml version="1.0" encoding="UTF-8" standalone="no"?>
<!-- Created with Inkscape (http://www.inkscape.org/) -->

<svg
   width="288.33563mm"
   height="103.63519mm"
   viewBox="0 0 288.33563 103.63519"
   version="1.1"
   id="svg1"
   inkscape:version="1.3 (0e150ed6c4, 2023-07-21)"
   sodipodi:docname="busper-white-path.svg"
   xmlns:inkscape="http://www.inkscape.org/namespaces/inkscape"
   xmlns:sodipodi="http://sodipodi.sourceforge.net/DTD/sodipodi-0.dtd"
   xmlns="http://www.w3.org/2000/svg"
   xmlns:svg="http://www.w3.org/2000/svg">
  <sodipodi:namedview
     id="namedview1"
     pagecolor="#505050"
     bordercolor="#eeeeee"
     borderopacity="1"
     inkscape:showpageshadow="0"
     inkscape:pageopacity="0"
     inkscape:pagecheckerboard="0"
     inkscape:deskcolor="#505050"
     inkscape:document-units="mm"
     inkscape:zoom="0.51936728"
     inkscape:cx="375.45684"
     inkscape:cy="326.35864"
     inkscape:window-width="1440"
     inkscape:window-height="831"
     inkscape:window-x="0"
     inkscape:window-y="0"
     inkscape:window-maximized="1"
     inkscape:current-layer="layer1" />
  <defs
     id="defs1" />
  <g
     inkscape:label="Layer 1"
     inkscape:groupmode="layer"
     id="layer1"
     transform="translate(-5.6659213,-61.981286)">
    <path
       d="m 46.912289,164.9332 c 3.54704,-0.38004 7.03074,-0.9501 10.51444,-1.9002 2.91364,-0.82342 5.95396,-1.2668 8.8676,-2.09022 17.1018,-4.87718 33.38018,-11.90792 49.025161,-20.39548 0.50672,-0.25336 0.9501,-0.57006 1.39348,-0.88676 1.5835,-1.01344 3.10366,-2.15356 4.7505,-3.10366 3.23034,-1.9002 6.58736,-3.54704 9.69102,-5.57392 6.46068,-4.18044 12.60466,-8.80426 18.11524,-14.18816 3.4837,-3.42036 6.58736,-7.03074 8.74092,-11.46454 3.54704,-7.284104 0.12668,-14.758224 -5.44724,-18.241924 -2.59694,-1.5835 -5.3839,-2.59694 -8.2342,-3.35702 -6.90406,-1.77352 -13.87146,-2.72362 -21.02888,-2.59694 -4.68716,0.06334 -9.37432,-0.25336 -14.06148,-0.3167 -1.64684,0 -3.29368,0.19002 -5.00386,0.25336 -0.44338,0.06334 -0.88676,0 -1.39348,0 0.88676,-0.88676 1.9002,-1.39348 2.8503,-2.02688 3.73706,-2.28024 6.84072,-5.0672 7.6008,-9.62768 -0.44338,-0.76008 -1.14012,-1.52016 -1.14012,-2.34358 -0.12668,-1.45682 -0.82342,-2.34358 -2.02688,-2.91364 -1.07678,-0.50672 -2.28024,-0.88676 -3.4837,-1.20346 -3.99042,-0.88676 -8.044181,-0.9501 -12.097941,-0.9501 -7.41078,-0.12668 -14.75822,0.25336 -22.169,0.82342 -4.62382,0.44338 -9.24764,0.82342 -13.87146,1.20346 -0.82342,0.12668 -1.71018,0.12668 -2.40692,0.82342 0.57006,0.06334 1.14012,0.19002 1.64684,0.25336 -0.57006,0.3167 -1.14012,0.3167 -1.71018,0.25336 -1.39348,-0.06334 -2.8503,-0.3167 -4.24378,-0.25336 -2.40692,0.12668 -4.87718,0.3167 -7.2841,0.69674 -4.62382,0.69674 -9.31098,1.14012 -13.80812,2.72362 -0.6334,0.19002 -1.2668,0.3167 -1.9002,0.44338 -3.42036,0.76008 -6.71404,1.71018 -9.88104,3.23034 l -6.39734,2.97698 c -1.20346,0.57006 -2.2169,1.33014 -2.6602803,2.72362 0.3167003,0.9501 0.6967403,1.77352 1.9002003,2.02688 0.25336,-0.57006 0.50672,-1.14012 0.82342,-1.71018 0.06334,-0.12668 0.38004,-0.12668 0.76008,-0.3167 -0.38004,0.9501 -0.69674,1.71018 -1.01344,2.40692 0.38004,0.88676 0.88676,1.45682 1.9002,1.14012 -0.25336,-0.57006 -0.44338,-1.07678 -0.69674,-1.71018 0.69674,0.3167 1.2668,0.57006 1.9002,0.88676 l 0.3167,-2.40692 c 1.33014,-0.44338 2.78696,-0.82342 4.18044,-1.20346 4.56048,-1.39348 9.12096,-2.72362 13.68144,-4.05376 0.38004,-0.12668 0.82342,-0.19002 1.20346,-0.25336 2.40692,-0.19002 4.7505,-0.3167 7.09408,-0.6334 2.8503,-0.3167 5.7006,-0.82342 8.48756,-1.14012 4.4338,-0.57006 8.8676,-1.14012 13.3014,-1.5835 3.99042,-0.38004 7.98084,-0.57006 11.97126,-0.88676 7.72748,-0.57006 15.45496,-0.76008 23.18244,-0.50672 2.090221,0.06334 4.180441,0.3167 6.207321,0.6334 1.20346,0.12668 2.47026,0.25336 3.54704,0.9501 -0.50672,1.71018 -0.57006,1.64684 -1.52016,2.66028 -1.33014,1.45682 -2.97698,2.47026 -4.68716,3.35702 -3.230341,1.5835 -6.397341,3.23034 -9.627681,4.68716 -2.47026,1.07678 -5.00386,1.9002 -7.53746,2.78696 -3.04032,1.14012 -6.08064,2.15356 -9.31098,3.29368 1.33014,-2.8503 2.59694,-5.44724 3.86374,-8.10752 0.57006,-1.14012 0.88676,-2.28024 0.06334,-3.61038 -0.50672,-0.25336 -1.01344,-0.57006 -1.77352,-1.01344 -0.19002,1.07678 0.12668,2.28024 -0.88676,2.72362 -0.12668,-0.82342 -0.19002,-1.64684 -0.3167,-2.78696 -0.3167,0.44338 -0.44338,0.57006 -0.50672,0.69674 l -6.52402,13.11138 c -0.44338,1.01344 -1.14012,1.64684 -2.15356,2.02688 -7.9175,3.167 -15.45496,7.09408 -23.05576,11.021164 -6.90406,3.54704 -13.3014,7.9175 -19.38204,12.668 -3.61038,2.78696 -6.71404,6.08064 -9.69102,9.501 -0.50672,0.57006 -0.9501,1.20346 -1.45682,1.83686 -2.72362,3.61038 -4.3704603,7.72748 -5.7639403,11.97126 -0.38004,1.14012 -0.57006,2.34358 -0.82342,3.54704 l -0.5067201,3.54704 c -0.6334,-1.2668 -0.12668,-2.5336 -0.06334,-3.8004 0.06334,-1.2668 0.3800401,-2.5336 0.5700601,-3.73706 -0.5700601,0.88676 -0.8867601,1.83686 -1.1401201,2.78696 -1.5835,6.20732 -0.57006,11.84458 3.6103801,16.7851 3.8637403,4.4338 8.8676003,6.9674 14.3781803,8.48756 7.41078,2.09022 15.01158,1.9002 22.54904,0.9501 z m 44.84472,-78.478264 c 1.07678,-0.76008 1.77352,-1.64684 2.97698,-1.83686 1.71018,-0.25336 3.35702,-0.76008 5.13054,-0.50672 l -0.57006,0.69674 0.823421,0.44338 z m -38.06734,73.537744 c -0.06334,-0.44338 -0.06334,-0.57006 -0.06334,-0.82342 -1.14012,0.12668 -2.15356,0.44338 -3.42036,-0.0633 -1.01344,-0.50672 -2.47026,-0.12668 -3.67372,0.0633 -7.2841,1.07678 -14.44152,0.69674 -21.59894,-0.88676 -0.19002,0 -0.3167,-0.0633 -0.50672,-0.0633 -0.06334,-0.0633 -0.12668,0.0633 -0.25336,0.12668 0.57006,0.25336 1.07678,0.50672 1.71018,0.82342 -3.10366,0.3167 -5.44724,0.12668 -10.51444,-3.67372 h 1.9002 c 0,-0.0633 0.06334,-0.19002 0.06334,-0.3167 -1.14012,-0.69674 -2.28024,-1.39348 -3.4837,-2.02688 -1.14012,-0.6334 -1.71018,-1.71018 -2.28024,-2.72362 -0.44338,-0.82342 -0.57006,-1.77352 -0.88676,-2.72362 -0.19002,-0.69674 -0.3167,-1.45682 -0.57006,-2.34358 0.12668,-0.76008 0.25336,-1.77352 0.38004,-2.78696 0.3167,-2.72362 1.2668,-5.19388 2.5336,-7.6008 5.00386,-9.56434 12.668,-16.65842 21.47226,-22.61238 7.47412,-5.00386 15.5183,-8.99428 23.56248,-12.984704 1.83686,-0.88676 3.67372,-1.77352 5.51058,-2.59694 1.01344,-0.44338 2.02688,-0.76008 3.23034,-1.2668 -0.38004,0.88676 -0.76008,1.64684 -1.14012,2.40692 -1.2668,2.723624 -2.59694,5.383904 -3.167,8.487564 -0.25336,1.64684 -1.20346,3.23034 -1.96354,4.87718 -0.6334,1.39348 -1.33014,2.72362 -1.64684,4.24378 -0.25336,1.14012 -0.76008,2.2169 -1.07678,3.29368 -0.3167,1.01344 0.06334,1.77352 0.82342,2.34358 0.57006,0.44338 1.14012,0.50672 1.71018,0.19002 0.50672,-0.3167 0.76008,-0.82342 0.50672,-1.52016 -0.12668,-0.3167 -0.19002,-0.69674 -0.3167,-1.2668 1.14012,-3.10366 2.15356,-6.52402 3.8004,-9.69102 1.33014,-2.66028 2.5336,-5.32056 3.86374,-7.98084 1.01344,-2.026884 2.15356,-3.990424 3.167,-6.017304 0.88676,-1.52016 0.88676,-1.52016 2.47026,-2.28024 -0.06334,-0.25336 -0.12668,-0.44338 -0.19002,-0.57006 2.34358,-0.25336 4.49714,-1.33014 6.9674,-1.07678 0.19002,0.57006 0.25336,1.01344 0.38004,1.45682 l 1.64684,0.88676 c 1.20346,-0.44338 1.20346,-0.44338 1.64684,-1.77352 -0.3167,-0.44338 -0.69674,-0.9501 -1.07678,-1.5835 l 7.9175,-1.33014 c 2.59694,-0.50672 5.13054,-1.07678 7.66414,-1.52016 1.266801,-0.25336 2.596941,-0.19002 3.863741,-0.25336 4.68716,-0.3167 9.43766,-0.3167 14.12482,-1.01344 0.88676,-0.12668 1.96354,-0.19002 2.72362,0.12668 1.64684,0.69674 3.35702,0.57006 5.0672,0.76008 3.73706,0.44338 7.47412,0.76008 11.21118,1.14012 0.38004,0.06334 0.76008,0 1.39348,0 -0.25336,-0.19002 -0.38004,-0.3167 -0.6334,-0.57006 0.38004,-0.06334 0.82342,-0.25336 1.01344,-0.12668 3.10366,1.5835 6.52402,2.2169 9.62768,3.61038 1.83686,0.76008 3.61038,1.5835 5.25722,2.66028 2.09022,1.39348 2.66028,3.54704 2.34358,5.95396 -0.6334,4.940524 -3.61038,8.614244 -6.84072,12.034604 -4.05376,4.30712 -8.67758,8.04418 -13.55476,11.27452 -4.94052,3.29368 -9.94438,6.39734 -14.8849,9.56434 -0.88676,0.57006 -2.2169,0.82342 -2.15356,2.34358 0,0.0633 -0.19002,0.19002 -0.38004,0.3167 -1.52016,1.01344 -2.97698,2.09022 -4.62382,2.91364 -1.5835,0.88676 -3.29368,1.52016 -5.00386,2.2169 -3.4837,1.45682 -6.9674,2.97698 -10.451101,4.4338 -3.92708,1.64684 -7.85416,3.23034 -11.84458,4.81384 -1.33014,0.50672 -2.78696,0.76008 -4.18044,1.20346 -1.9002,0.57006 -3.86374,1.07678 -5.76394,1.71018 -1.39348,0.50672 -2.78696,1.07678 -4.1171,1.71018 -2.28024,1.01344 -4.81384,1.33014 -7.22076,1.9002 -1.52016,0.38004 -3.04032,0.6334 -4.62382,0.9501 -0.25336,0.38004 -0.44338,0.82342 -0.82342,1.45682 -1.33014,0.50672 -2.91364,1.14012 -4.62382,1.77352 z m 63.340001,-23.30912 c 1.83686,-1.5835 3.04032,-2.28024 4.30712,-2.40692 -1.33014,0.76008 -2.66028,1.45682 -4.30712,2.40692 z M 8.9082887,144.41104 c 0.19002,-1.77352 0.3167,-3.61038 0.50672,-5.44724 0.50672,1.9002 0.25336,3.67372 -0.50672,5.44724 z M 184.80353,104.25348 c 1.01344,-2.28024 1.96354,-4.497144 2.97698,-6.714044 0.3167,-0.69674 0.44338,-1.39348 -0.25336,-2.15356 -0.44338,0.06334 -0.9501,0.12668 -1.45682,0.12668 l 0.0633,-0.06334 c -0.44338,0.44338 -0.88676,0.88676 -1.33014,1.2668 -1.39348,1.20346 -2.8503,2.34358 -4.18044,3.610384 -1.64684,1.64684 -3.54704,2.91364 -5.32056,4.37046 -3.04032,2.34358 -5.89062,4.94052 -8.8676,7.41078 0,0.0633 0,0.19002 -0.0633,0.3167 0.3167,0 0.57006,0.0633 1.07678,0.12668 -1.64684,0.88676 -2.8503,1.96354 -4.81384,2.5336 1.83686,-3.35702 3.167,-6.52402 5.13054,-9.31098 1.96354,-2.78696 4.56048,-5.13054 6.71404,-7.600804 0.69674,0.12668 1.20346,0.12668 1.83686,0.25336 l -0.82342,-1.71018 c 0.50672,-0.06334 0.88676,-0.06334 1.33014,-0.12668 -0.0633,-0.3167 -0.12668,-0.76008 -0.12668,-1.2668 -0.50672,-0.19002 -0.9501,-0.44338 -1.14012,-0.50672 -1.45682,0.50672 -2.66028,0.9501 -3.86374,1.33014 -0.19002,0.06334 -0.50672,-0.19002 -0.6334,-0.25336 1.2668,-1.5835 3.04032,-1.2668 4.49714,-1.96354 -1.14012,-1.33014 -1.77352,-1.5835 -2.72362,-0.88676 -1.83686,1.45682 -3.67372,2.91364 -4.7505,5.13054 0.3167,0.50672 0.0633,0.6334 -0.38004,0.57006 -1.9002,1.836864 -3.35702,3.927084 -4.68716,6.143984 -0.0633,0.19002 -0.25336,0.44338 -0.19002,0.6334 0.19002,0.88676 -0.38004,1.52016 -0.82342,2.15356 -0.69674,0.9501 -1.52016,1.83686 -2.15356,2.91364 -1.2668,2.09022 -2.2169,4.37046 -2.15356,6.9674 0,1.14012 0.50672,1.83686 1.64684,2.02688 0.3167,0.0633 0.76008,0.0633 0.9501,0.25336 1.07678,1.01344 2.2169,0.76008 3.42036,0.3167 2.34358,-0.76008 4.30712,-2.15356 6.14398,-3.67372 2.66028,-2.28024 5.19388,-4.62382 7.79082,-6.90406 0.3167,-0.3167 0.69674,-0.6334 1.07678,-0.9501 0,0.69674 -0.19002,1.20346 -0.44338,1.71018 -0.82342,1.71018 -1.64684,3.42036 -2.40692,5.13054 -0.19002,0.44338 -0.44338,0.9501 -0.38004,1.33014 0.19002,0.76008 -0.25336,1.33014 -0.50672,1.9002 -0.25336,0.50672 -0.38004,0.9501 -0.57006,1.45682 l 0.9501,0.6334 c 0.25336,-0.19002 0.44338,-0.25336 0.57006,-0.3167 l 1.01344,0.9501 c 0.88676,-1.2668 2.02688,-2.02688 2.66028,-3.42036 0.76008,-1.64684 1.71018,-3.23034 2.5336,-4.87718 0.82342,-1.5835 1.71018,-3.10366 2.5336,-4.68716 0.25336,-0.50672 0.57006,-1.07678 -0.19002,-1.5835 l -0.9501,0.9501 c -0.9501,1.07678 -1.9002,2.15356 -2.8503,3.167 1.07678,-2.47026 2.2169,-4.81384 3.35702,-7.2841 0.3167,0.19002 0.44338,0.3167 0.76008,0.57006 z m -2.8503,-1.01344 c -0.0633,0.12668 -0.19002,0.19002 -0.3167,0.25336 v -0.44338 c 0,-0.0633 0.19002,-0.12668 0.25336,-0.19002 0,0.12668 0.12668,0.3167 0.0633,0.38004 z m -3.67372,4.24378 c -0.57006,0.0633 -1.01344,0.44338 -1.64684,0.44338 l 4.1171,-3.99042 c 0.25336,-0.19002 0.50672,-0.25336 0.82342,-0.38004 -0.38004,1.96354 -1.20346,3.4837 -3.29368,3.92708 z m -14.75822,2.97698 0.3167,0.19002 c -0.3167,0.57006 -0.6334,1.14012 -0.9501,1.77352 -0.12668,-0.12668 -0.25336,-0.19002 -0.38004,-0.25336 z m 16.59508,1.52016 0.3167,-0.57006 -0.12668,0.6334 c -0.0633,0 -0.12668,-0.0633 -0.19002,-0.0633 z m -14.75822,4.49714 c 1.14012,-1.52016 2.72362,-2.72362 3.92708,-2.8503 -1.14012,1.14012 -2.34358,2.09022 -3.92708,2.8503 z m 18.68534,4.4338 c 1.01344,-0.12668 2.02688,-0.3167 3.10366,-0.25336 2.72362,0.0633 5.44724,-0.25336 8.10752,-1.07678 3.04032,-0.9501 4.81384,-2.97698 5.89062,-5.82728 0.12668,-0.44338 0.0633,-0.9501 0,-1.45682 -0.12668,-1.14012 -0.3167,-2.28024 -0.44338,-3.42036 l -0.9501,-9.247644 c 0,-0.19002 0.0633,-0.44338 0.0633,-0.50672 3.23034,-1.83686 6.6507,-2.09022 10.1344,-2.28024 0.12668,0.19002 0.19002,0.50672 0.3167,0.76008 1.33014,0 2.09022,-0.69674 2.40692,-1.71018 0.12668,-2.15356 -1.5835,-3.04032 -2.8503,-3.86374 -1.39348,-1.01344 -3.167,-0.38004 -4.68716,0.06334 l -0.0633,0.25336 c 0.12668,0.19002 0.19002,0.3167 0.3167,0.44338 -3.92708,1.20346 -7.41078,3.04032 -9.69102,6.6507 -0.12668,-0.38004 -0.19002,-0.6334 -0.3167,-1.14012 -0.44338,2.090224 0.25336,3.863744 0.57006,5.637264 0.25336,1.39348 0.76008,2.78696 0.9501,4.18044 0.44338,3.67372 0.25336,4.62382 -3.42036,6.14398 -1.9002,0.69674 -3.73706,1.33014 -5.89062,1.01344 -1.9002,-0.25336 -3.86374,0.0633 -5.82728,0.12668 -0.76008,0 -1.01344,0.44338 -1.39348,1.07678 -0.50672,0.82342 -0.3167,1.77352 -0.88676,2.59694 1.39348,1.01344 2.72362,1.96354 4.56048,1.83686 z m 13.68144,-22.485704 c -0.0633,-0.06334 -0.12668,-0.12668 -0.12668,-0.19002 l 0.19002,-0.19002 c 0.0633,0.06334 0.0633,0.12668 0.0633,0.12668 -0.0633,0.12668 -0.12668,0.19002 -0.12668,0.25336 z m 2.34353,55.169144 c 0.38004,-0.3167 0.76008,-0.82342 1.01344,-1.33014 1.20346,-2.28024 2.40692,-4.49714 3.42036,-6.84072 2.02688,-4.81384 3.99042,-9.69102 5.95396,-14.5682 1.52016,-3.8004 2.97698,-7.6008 4.49714,-11.52788 2.66028,1.71018 5.25722,1.64684 8.04418,0.50672 2.97698,-1.20346 5.76394,-2.66028 8.36088,-4.56048 3.167,-2.34358 5.3839,-5.3839 6.77738,-9.12096 0.6334,-1.9002 0.76008,-3.73706 0,-5.7006 -0.50672,-1.330144 -1.14012,-2.280244 -2.66028,-2.280244 -1.01344,-1.5835 -1.5835,-1.96354 -3.23034,-2.09022 -1.39348,-0.06334 -2.66028,0.19002 -3.86374,0.76008 -1.9002,0.82342 -3.67372,1.96354 -5.25722,3.293684 -0.25336,0.25336 -0.57006,0.44338 -0.88676,0.6334 0.12668,-1.140124 0.50672,-2.153564 0.82342,-3.103664 0.38004,-1.33014 0.6334,-2.72362 1.14012,-3.99042 0.57006,-1.45682 -0.38004,-2.72362 -0.12668,-4.05376 -0.38004,-0.3167 -0.76008,-0.6334 -1.14012,-0.88676 -0.88676,-0.57006 -1.64684,-0.3167 -2.15356,0.6334 -0.6334,1.20346 -1.64684,2.28024 -1.07678,3.8004 -0.88676,2.8503 -1.71018,5.76394 -2.72362,8.614244 -0.82342,2.40692 -2.02688,4.68716 -2.97698,7.03074 -0.69674,2.02688 -1.83686,3.8004 -2.97698,5.57392 -6.0173,8.99428 -10.4511,18.74864 -13.80812,29.07306 -0.50672,1.45682 -0.88676,2.97698 -1.14012,4.49714 -0.25336,1.20346 -0.25336,2.40692 -0.3167,3.61038 0,0.76008 0.44338,1.5835 1.07678,1.5835 1.14012,0 2.02688,1.39348 3.23034,0.44338 z m 27.2362,-54.409064 c 1.77352,-1.20346 3.42036,-1.64684 5.51058,-1.2668 z m -7.2841,15.771664 c -0.88676,0.3167 -1.83686,0.69674 -2.8503,-0.0633 0.12668,-0.3167 0.25336,-0.69674 0.44338,-0.9501 2.66028,-3.42036 5.57392,-6.77738 9.05762,-9.43766 1.96354,-1.52016 3.99042,-2.91364 6.6507,-3.04032 0.82342,1.07678 0.6334,2.09022 0.19002,3.04032 -1.01344,2.09022 -2.5336,3.86374 -4.37046,5.32056 -2.72362,2.2169 -5.82728,3.92708 -9.12096,5.13054 z m 33.00009,4.05376 h 2.28024 c 2.72362,0 5.25722,-0.69674 7.6008,-2.09022 1.2668,-0.69674 1.2668,-2.28024 0.0633,-3.23034 -0.6334,-0.50672 -1.2668,-0.9501 -1.77352,-1.2668 -1.33014,0.44338 -2.5336,1.01344 -3.73706,1.33014 -1.20346,0.38004 -2.47026,0.50672 -3.8004,0.76008 0.19002,0.19002 0.25336,0.38004 0.44338,0.57006 -4.81384,-0.38004 -6.71404,-1.9002 -6.77738,-5.25722 0.25336,-0.12668 0.6334,-0.25336 0.9501,-0.38004 2.91364,-1.2668 6.0173,-2.28024 8.8676,-3.92708 2.91364,-1.71018 5.76394,-3.4837 8.2342,-5.763944 0.88676,-0.82342 1.64684,-1.71018 2.15356,-2.8503 0.82342,-1.83686 0.44338,-3.04032 -1.39348,-3.99042 l -0.82342,0.69674 c -0.0633,-1.07678 0.57006,-0.50672 0.82342,-0.69674 -0.50672,-0.25336 -1.07678,-0.50672 -1.64684,-0.82342 -0.88676,-0.50672 -1.77352,-0.50672 -2.66028,0 -1.39348,0.76008 -2.78696,1.52016 -4.1171,2.40692 -1.07678,0.69674 -2.15356,1.45682 -3.23034,2.28024 -0.50672,0.38004 -0.9501,0.82342 -1.33014,1.39348 -0.9501,1.33014 -2.2169,2.343584 -3.54704,3.293684 -1.52016,0.9501 -2.91364,2.09022 -4.1171,3.42036 -0.25336,0.3167 -0.69674,0.50672 -1.07678,0.69674 -1.20346,0.76008 -2.59694,0.69674 -3.92708,0.6334 l 0.0633,-0.0633 c -0.44338,0.38004 -0.88676,0.69674 -1.33014,1.01344 -0.0633,0.6334 -0.0633,1.20346 -0.12668,1.64684 1.07678,1.52016 2.47026,0.50672 3.67372,0.57006 0.0633,0.57006 0.0633,1.07678 0.12668,1.64684 0.0633,0.25336 0.12668,0.57006 0.3167,0.82342 0.38004,0.50672 0.82342,1.07678 1.2668,1.5835 0.3167,0.3167 0.57006,0.82342 0.9501,0.9501 1.5835,0.50672 2.28024,1.96354 3.54704,2.8503 -0.12668,0.25336 -0.25336,0.38004 -0.38004,0.57006 1.45682,0.50672 2.8503,1.20346 4.4338,1.20346 z m -1.52016,-15.13826 c 1.77352,-1.77352 3.8004,-3.29368 6.14398,-4.623824 l 0.19002,0.760084 c -1.14012,1.20346 -3.92708,2.97698 -6.334,3.86374 z m -5.63726,7.41078 c -0.19002,-0.50672 -0.38004,-0.88676 0.19002,-1.14012 -0.0633,0.3167 -0.12668,0.6334 -0.19002,1.14012 z m 47.4416,-12.731344 c -0.3167,-0.12668 -0.76008,-0.06334 -0.9501,-0.25336 -0.44338,-0.50672 -0.76008,-1.14012 -1.20346,-1.5835 -0.25336,-0.3167 -0.6334,-0.57006 -1.01344,-0.57006 -0.69675,-0.06334 -1.45683,0 -2.21691,0.19002 -2.97698,0.57006 -5.63726,1.96354 -7.9175,3.927084 -0.3167,0.25336 -0.69674,0.50672 -1.14012,0.82342 0.38004,-1.456824 0.69674,-2.723624 1.01344,-4.117104 -0.76008,-0.12668 -1.33014,-0.19002 -1.9002,-0.3167 0.0633,-0.50672 0.0633,-0.9501 0.12668,-1.33014 l -1.96354,-0.9501 c -2.2169,7.537464 -6.08064,14.314844 -8.74092,21.535604 0.25336,1.14012 0.57006,2.2169 0.82342,3.167 l 2.28024,1.2668 c 0.9501,-1.64684 1.96354,-3.167 2.72362,-4.87718 0.38004,-0.82342 0.9501,-1.64684 1.5835,-2.40692 0.9501,-1.07678 2.02688,-2.02688 2.91364,-3.167 0.69674,-0.76008 1.20346,-1.64684 1.77352,-2.47026 v 0.0633 c 1.64684,-1.52016 3.35702,-2.97698 5.3839,-4.05376 0.88676,-0.50672 1.77352,-0.9501 2.66028,-1.33014 0.25336,-0.12668 0.69674,-0.3167 0.76008,-0.25336 0.57006,0.6334 1.20346,0 1.77353,0.0633 0.12668,0 0.19002,0.0633 0.3167,0.0633 0.25336,0.44338 0.57006,0.82342 0.82342,1.20346 1.64684,-0.50672 2.78696,-2.09022 2.78696,-3.547044 0,-0.57006 -0.19002,-0.88676 -0.69674,-1.07678 z m -12.22463,1.900204 c 2.40692,-1.900204 4.87718,-2.850304 7.53746,-3.483704 0.69674,-0.12668 1.39349,-0.44338 2.34359,0.3167 -3.35703,1.07678 -6.46069,2.02688 -9.88105,3.167004 z m -2.66028,7.6008 c -1.20346,1.2668 -2.28024,2.59694 -3.73706,4.18044 0.19002,-0.82342 0.19002,-1.33014 0.44338,-1.5835 1.2668,-1.39348 2.47026,-2.8503 4.18044,-3.86374 0.0633,0.3167 0.12668,0.44338 0.19002,0.6334 -0.38004,0.25336 -0.82342,0.38004 -1.07678,0.6334 z"
       id="text1"
       style="font-size:63.34px;font-family:Reey;-inkscape-font-specification:'Reey, Normal';fill:#ffffff;stroke-width:0.291997"
       aria-label="Busper" />
  </g>
</svg>
