<?xml version="1.0" encoding="UTF-8" standalone="no"?>
<!-- Created with Inkscape (http://www.inkscape.org/) -->

<svg
   width="171.50014mm"
   height="171.50014mm"
   viewBox="0 0 171.50014 171.50014"
   version="1.1"
   id="svg1"
   inkscape:version="1.3 (0e150ed6c4, 2023-07-21)"
   sodipodi:docname="favicon.svg"
   xmlns:inkscape="http://www.inkscape.org/namespaces/inkscape"
   xmlns:sodipodi="http://sodipodi.sourceforge.net/DTD/sodipodi-0.dtd"
   xmlns="http://www.w3.org/2000/svg"
   xmlns:svg="http://www.w3.org/2000/svg">
  <sodipodi:namedview
     id="namedview1"
     pagecolor="#505050"
     bordercolor="#eeeeee"
     borderopacity="1"
     inkscape:showpageshadow="0"
     inkscape:pageopacity="0"
     inkscape:pagecheckerboard="0"
     inkscape:deskcolor="#505050"
     inkscape:document-units="mm"
     inkscape:zoom="0.51936728"
     inkscape:cx="221.42327"
     inkscape:cy="511.19893"
     inkscape:window-width="1440"
     inkscape:window-height="831"
     inkscape:window-x="0"
     inkscape:window-y="0"
     inkscape:window-maximized="1"
     inkscape:current-layer="layer1" />
  <defs
     id="defs1" />
  <g
     inkscape:label="Layer 1"
     inkscape:groupmode="layer"
     id="layer1"
     transform="translate(-46.223824,-13.045837)">
    <circle
       style="fill:#000000;fill-opacity:1;stroke-width:0.264583"
       id="path1"
       cx="131.97389"
       cy="98.795906"
       r="85.750069" />
    <path
       d="m 99.671629,145.12938 c 3.214021,-0.34436 6.370641,-0.8609 9.527271,-1.72179 2.64009,-0.74612 5.39496,-1.14787 8.03505,-1.89398 15.49616,-4.41928 30.24622,-10.78992 44.42234,-18.48061 0.45914,-0.22957 0.86089,-0.51654 1.26265,-0.80351 1.43483,-0.91829 2.81226,-1.95136 4.30449,-2.81226 2.92705,-1.7218 5.96889,-3.21402 8.78116,-5.0506 5.8541,-3.78796 11.42124,-7.97766 16.41445,-12.85608 3.15663,-3.099234 5.96889,-6.370646 7.92026,-10.38817 3.21402,-6.600218 0.11479,-13.372616 -4.93581,-16.529242 -2.35312,-1.43483 -4.87842,-2.353121 -7.46112,-3.041839 -6.25586,-1.60701 -12.56911,-2.467908 -19.05454,-2.353121 -4.2471,0.05739 -8.49419,-0.229573 -12.74129,-0.286966 -1.49222,0 -2.98445,0.172179 -4.53406,0.229572 -0.40176,0.05739 -0.80351,0 -1.26265,0 0.8035,-0.803504 1.72179,-1.26265 2.58269,-1.836582 3.3862,-2.066155 6.19846,-4.591456 6.88718,-8.723766 -0.40175,-0.688719 -1.03307,-1.377437 -1.03307,-2.123549 -0.11479,-1.320043 -0.74612,-2.123548 -1.83659,-2.640087 -0.97568,-0.459146 -2.06615,-0.803505 -3.15662,-1.090471 -3.61577,-0.803505 -7.28894,-0.860898 -10.9621,-0.860898 -6.71501,-0.114786 -13.37262,0.229573 -20.08762,0.746112 -4.18971,0.401752 -8.37941,0.746111 -12.56911,1.090471 -0.74612,0.114786 -1.54962,0.114786 -2.18095,0.746111 0.51654,0.05739 1.03308,0.17218 1.49223,0.229573 -0.51654,0.286966 -1.03308,0.286966 -1.54962,0.229573 -1.26265,-0.05739 -2.58269,-0.286966 -3.84534,-0.229573 -2.18095,0.114786 -4.419281,0.286966 -6.600221,0.631325 -4.18971,0.631325 -8.4368,1.033078 -12.51172,2.467908 -0.57393,0.172179 -1.147864,0.286966 -1.721796,0.401752 -3.099232,0.688719 -6.083679,1.549617 -8.953339,2.927053 l -5.796713,2.697481 c -1.090471,0.516539 -2.008762,1.205257 -2.410514,2.467907 0.286966,0.860898 0.631325,1.60701 1.721796,1.836583 0.229572,-0.516539 0.459145,-1.033078 0.746111,-1.549617 0.05739,-0.114786 0.344359,-0.114786 0.688719,-0.286966 -0.34436,0.860898 -0.631326,1.549617 -0.918292,2.180942 0.34436,0.803505 0.803505,1.320044 1.721796,1.033078 -0.229572,-0.516539 -0.401752,-0.975685 -0.631325,-1.549617 0.631325,0.286966 1.147864,0.516539 1.721796,0.803505 l 0.286966,-2.180942 c 1.205257,-0.401752 2.525301,-0.746111 3.787951,-1.09047 4.132311,-1.262651 8.264621,-2.467908 12.396934,-3.673165 0.34436,-0.114787 0.74611,-0.17218 1.09047,-0.229573 2.18094,-0.17218 4.30449,-0.286966 6.42804,-0.573932 2.58269,-0.286966 5.165381,-0.746112 7.690691,-1.033078 4.01752,-0.516538 8.03504,-1.033077 12.05257,-1.43483 3.61577,-0.344359 7.23154,-0.516538 10.84731,-0.803504 7.00197,-0.516539 14.00394,-0.688719 21.00591,-0.459146 1.89398,0.05739 3.78795,0.286966 5.62454,0.573932 1.09047,0.114786 2.23833,0.229573 3.21402,0.860898 -0.45915,1.549616 -0.51654,1.492223 -1.37744,2.410514 -1.20526,1.320044 -2.69748,2.238335 -4.2471,3.04184 -2.92705,1.43483 -5.79671,2.927053 -8.72376,4.247097 -2.23834,0.975684 -4.53407,1.721796 -6.82979,2.525301 -2.75488,1.033077 -5.50975,1.951368 -8.4368,2.984446 1.20525,-2.582694 2.35312,-4.935815 3.50098,-7.34633 0.51654,-1.033077 0.80351,-2.066155 0.0574,-3.271412 -0.45914,-0.229573 -0.91829,-0.516539 -1.60701,-0.918291 -0.17218,0.975684 0.11479,2.066155 -0.8035,2.467907 -0.11479,-0.746111 -0.17218,-1.492223 -0.28697,-2.5253 -0.28696,0.401752 -0.40175,0.516538 -0.45914,0.631325 l -5.9115,11.880392 c -0.40175,0.918291 -1.03308,1.492223 -1.95137,1.836583 -7.17415,2.86966 -14.00394,6.428038 -20.891131,9.986416 -6.25585,3.21402 -12.05257,7.17415 -17.562315,11.47864 -3.271412,2.5253 -6.083679,5.50975 -8.781159,8.60898 -0.459146,0.51654 -0.860898,1.09047 -1.320044,1.6644 -2.467908,3.27142 -3.960131,7.00197 -5.222781,10.84732 -0.344359,1.03308 -0.516539,2.12355 -0.746112,3.21402 l -0.459145,3.21402 c -0.573932,-1.14787 -0.114787,-2.29573 -0.05739,-3.4436 0.05739,-1.14786 0.34436,-2.29572 0.516539,-3.38619 -0.516539,0.8035 -0.803505,1.6644 -1.033077,2.5253 -1.43483,5.62453 -0.516539,10.73252 3.271412,15.20919 3.500985,4.01753 8.035048,6.31326 13.028256,7.69069 6.714996,1.89398 13.602186,1.7218 20.431976,0.8609 z M 140.30602,74.019206 c 0.97568,-0.688718 1.607,-1.492223 2.69748,-1.664402 1.54961,-0.229573 3.04184,-0.688719 4.64884,-0.459146 l -0.51653,0.631325 0.74611,0.401753 z M 105.8127,140.65271 c -0.0574,-0.40175 -0.0574,-0.51654 -0.0574,-0.74611 -1.03308,0.11479 -1.95137,0.40175 -3.09923,-0.0574 -0.9183,-0.45915 -2.23834,-0.11479 -3.328811,0.0574 -6.60022,0.97568 -13.08565,0.63133 -19.571081,-0.8035 -0.172179,0 -0.286966,-0.0574 -0.459145,-0.0574 -0.05739,-0.0574 -0.114787,0.0574 -0.229573,0.11479 0.516539,0.22957 0.975684,0.45914 1.549616,0.74611 -2.812267,0.28697 -4.935815,0.11479 -9.527271,-3.32881 h 1.721796 c 0,-0.0574 0.05739,-0.17218 0.05739,-0.28696 -1.033077,-0.63133 -2.066155,-1.26265 -3.156626,-1.83658 -1.033077,-0.57394 -1.549616,-1.54962 -2.066155,-2.46791 -0.401752,-0.74611 -0.516539,-1.60701 -0.803505,-2.46791 -0.172179,-0.63132 -0.286966,-1.32004 -0.516539,-2.12355 0.114787,-0.68872 0.229573,-1.60701 0.34436,-2.5253 0.286966,-2.46791 1.147864,-4.70624 2.295728,-6.88718 4.534062,-8.66638 11.47864,-15.09441 19.456295,-20.489375 6.7724,-4.534063 14.061341,-8.149834 21.350271,-11.765606 1.66441,-0.803505 3.32881,-1.607009 4.99321,-2.353121 0.91829,-0.401752 1.83658,-0.688718 2.92705,-1.147864 -0.34435,0.803505 -0.68871,1.492223 -1.03307,2.180942 -1.14787,2.467907 -2.35312,4.878422 -2.86966,7.690688 -0.22958,1.492224 -1.09047,2.927054 -1.77919,4.419277 -0.57393,1.26265 -1.20526,2.467907 -1.49223,3.845349 -0.22957,1.03307 -0.68871,2.00876 -0.97568,2.98444 -0.28697,0.91829 0.0574,1.60701 0.74611,2.12355 0.51654,0.40175 1.03308,0.45915 1.54962,0.17218 0.45914,-0.28697 0.68872,-0.74611 0.45914,-1.37744 -0.11478,-0.28696 -0.17218,-0.63132 -0.28696,-1.14786 1.03308,-2.81227 1.95137,-5.911501 3.44359,-8.781161 1.20526,-2.410514 2.29573,-4.821029 3.50098,-7.231543 0.9183,-1.836582 1.95137,-3.615772 2.86966,-5.452354 0.80351,-1.377437 0.80351,-1.377437 2.23834,-2.066155 -0.0574,-0.229573 -0.11479,-0.401753 -0.17218,-0.516539 2.12355,-0.229573 4.07492,-1.205257 6.31325,-0.975684 0.17218,0.516538 0.22957,0.918291 0.34436,1.320043 l 1.49222,0.803505 c 1.09048,-0.401752 1.09048,-0.401752 1.49223,-1.60701 -0.28697,-0.401752 -0.63133,-0.860898 -0.97569,-1.43483 l 7.17415,-1.205257 c 2.35312,-0.459145 4.64885,-0.975684 6.94458,-1.377437 1.14786,-0.229572 2.35312,-0.172179 3.50099,-0.229572 4.24709,-0.286966 8.55158,-0.286966 12.79868,-0.918292 0.8035,-0.114786 1.77919,-0.172179 2.46791,0.114787 1.49222,0.631325 3.04184,0.516539 4.59145,0.688718 3.3862,0.401753 6.7724,0.688719 10.1586,1.033078 0.34436,0.05739 0.68872,0 1.26265,0 -0.22957,-0.17218 -0.34436,-0.286966 -0.57393,-0.516539 0.34436,-0.05739 0.74611,-0.229573 0.91829,-0.114786 2.81227,1.43483 5.9115,2.008762 8.72377,3.271412 1.6644,0.688718 3.27141,1.43483 4.76363,2.410514 1.89398,1.262651 2.41052,3.21402 2.12355,5.394961 -0.57393,4.47667 -3.27141,7.805475 -6.19847,10.904708 -3.67316,3.902733 -7.86286,7.288933 -12.28214,10.215993 -4.47667,2.98444 -9.01073,5.79671 -13.4874,8.66637 -0.80351,0.51654 -2.00877,0.74611 -1.95137,2.12355 0,0.0574 -0.17218,0.17218 -0.34436,0.28696 -1.37744,0.9183 -2.69748,1.89398 -4.1897,2.64009 -1.43483,0.80351 -2.98445,1.37744 -4.53407,2.00876 -3.15662,1.32005 -6.31325,2.69748 -9.46988,4.01753 -3.55837,1.49222 -7.11675,2.92705 -10.73252,4.36188 -1.20526,0.45915 -2.5253,0.68872 -3.78796,1.09047 -1.72179,0.51654 -3.50098,0.97569 -5.22278,1.54962 -1.26265,0.45914 -2.5253,0.97568 -3.73055,1.54961 -2.06616,0.9183 -4.36189,1.20526 -6.54283,1.7218 -1.37744,0.34436 -2.75487,0.57393 -4.1897,0.8609 -0.22958,0.34436 -0.40176,0.74611 -0.74611,1.32004 -1.20526,0.45915 -2.64009,1.03308 -4.18971,1.60701 z m 57.3932,-21.1207 c 1.6644,-1.43483 2.75488,-2.06615 3.90274,-2.18094 -1.20526,0.68872 -2.41051,1.32005 -3.90274,2.18094 z m -97.970191,7.00197 c 0.172179,-1.60701 0.286966,-3.27141 0.459145,-4.93581 0.459146,1.7218 0.229573,3.3288 -0.459145,4.93581 z"
       id="text1"
       style="font-size:57.3932px;font-family:Reey;-inkscape-font-specification:'Reey, Normal';fill:#f9f9f9;stroke-width:0.264583"
       aria-label="B" />
  </g>
</svg>
